<?xml version="1.0" encoding="UTF-8"?>
<svg xmlns="http://www.w3.org/2000/svg" xmlns:xlink="http://www.w3.org/1999/xlink" viewBox="0 0 548.38 548.38">
  <defs>
    <style>
      .cls-1 {
        fill: url(#linear-gradient-2);
        mix-blend-mode: screen;
      }

      .cls-2 {
        isolation: isolate;
      }

      .cls-3 {
        fill: url(#linear-gradient-6);
      }

      .cls-3, .cls-4 {
        mix-blend-mode: multiply;
      }

      .cls-4 {
        fill: url(#linear-gradient-5);
      }

      .cls-5 {
        fill: url(#linear-gradient-3);
      }

      .cls-6 {
        fill: url(#linear-gradient);
      }

      .cls-7 {
        fill: url(#linear-gradient-4);
      }
    </style>
    <linearGradient id="linear-gradient" x1="194.83" y1="353.54" x2="662.81" y2="-114.43" gradientUnits="userSpaceOnUse">
      <stop offset="0" stop-color="#245935"/>
      <stop offset=".2" stop-color="#3d7c3a"/>
      <stop offset=".4" stop-color="#51983f"/>
      <stop offset=".6" stop-color="#60ad42"/>
      <stop offset=".81" stop-color="#69b944"/>
      <stop offset="1" stop-color="#6cbe45"/>
    </linearGradient>
    <linearGradient id="linear-gradient-2" x1="51.66" y1="232.49" x2="240.93" y2="43.22" xlink:href="#linear-gradient"/>
    <linearGradient id="linear-gradient-3" x1="41.31" y1="347.5" x2="468.59" y2="-79.79" xlink:href="#linear-gradient"/>
    <linearGradient id="linear-gradient-4" x1="221.37" y1="350.91" x2="487.3" y2="84.98" xlink:href="#linear-gradient"/>
    <linearGradient id="linear-gradient-5" x1="336.83" y1="241.67" x2="371.68" y2="206.82" xlink:href="#linear-gradient"/>
    <linearGradient id="linear-gradient-6" x1="504.6" y1="241.67" x2="539.44" y2="206.82" xlink:href="#linear-gradient"/>
  </defs>
  <g class="cls-2">
    <g id="Layer_1" data-name="Layer 1">
      <g>
        <path class="cls-6" d="m274.19,548.38C123,548.38,0,425.38,0,274.19S123,0,274.19,0h274.19v69.7h-274.19c-112.76,0-204.49,91.73-204.49,204.49s91.73,204.49,204.49,204.49,204.49-91.73,204.49-204.49v-58.44h-98.06v78.62c0,56.55-46.01,102.56-102.56,102.56s-102.56-46.01-102.56-102.56v-45.76c0-56.55,46.01-102.56,102.56-102.56h270.32v128.14c0,151.19-123,274.19-274.19,274.19Zm3.87-332.62c-18.12,0-32.86,14.74-32.86,32.86v45.76c0,18.12,14.74,32.86,32.86,32.86s32.86-14.74,32.86-32.86v-78.62h-32.86Z"/>
        <path class="cls-1" d="m31.24,215.75c2.78-5.56,5.59-11.14,8.52-16.66l9.76-16.01,11.05-15.19c4.03-4.8,7.97-9.68,12.08-14.42,16.82-18.66,36.56-34.64,57.92-47.92,21.61-12.86,44.91-23.01,69.23-29.29,6.14-1.33,12.21-2.93,18.38-4.03,6.21-.9,12.37-2.04,18.58-2.75,6.25-.4,12.48-.92,18.71-1.21,6.25-.01,12.49.05,18.71.17-24.87,1.35-49.46,5.33-73.08,12.47-23.6,7.12-46.37,17-67.27,30-21.17,12.56-40.42,28.24-57.67,45.85-17.26,17.64-32.23,37.56-44.93,58.98Z"/>
        <path class="cls-5" d="m274.19,0C123,0,0,123,0,274.19c0,11.6.81,23,2.21,34.22C19.12,173.32,134.59,68.44,274.19,68.44h274.19V0h-274.19Z"/>
        <path class="cls-7" d="m175.5,248.61v45.76c0,3.84.25,7.61.66,11.34,5.67-51.23,49.18-91.22,101.89-91.22h270.32v-68.44h-270.32c-56.55,0-102.56,46.01-102.56,102.56Z"/>
        <polygon class="cls-4" points="310.92 215.75 380.62 215.75 380.62 249.72 310.92 215.75"/>
        <polygon class="cls-3" points="478.68 215.75 548.38 215.75 548.38 249.72 478.68 215.75"/>
      </g>
    </g>
  </g>
</svg>